Coordinates
version=1
nRows=16
nColumns=40
inDegrees=yes

Units are S.I. units (second, meters, Newtons, ...)
Angles are in degrees.

endheader
time	pelvis_tilt	pelvis_list	pelvis_rotation	pelvis_tx	pelvis_ty	pelvis_tz	hip_flexion_r	hip_adduction_r	hip_rotation_r	knee_angle_r	knee_angle_r_beta	ankle_angle_r	subtalar_angle_r	mtp_angle_r	hip_flexion_l	hip_adduction_l	hip_rotation_l	knee_angle_l	knee_angle_l_beta	ankle_angle_l	subtalar_angle_l	mtp_angle_l	lumbar_extension	lumbar_bending	lumbar_rotation	arm_flex_r	arm_add_r	arm_rot_r	elbow_flex_r	pro_sup_r	wrist_flex_r	wrist_dev_r	arm_flex_l	arm_add_l	arm_rot_l	elbow_flex_l	pro_sup_l	wrist_flex_l	wrist_dev_l
     33.93250000	     -2.55461993	     -5.78378305	     -1.30846323	      1.06543517	      0.91687328	      0.48698506	     23.47626430	      2.71022580	    -13.57529202	     20.75727529	     20.75727529	      1.78107844	     -5.18017397	     -4.51064389	     -0.67902431	    -11.81893481	     -9.54355613	     38.10798651	     38.10798651	      9.39502253	    -15.64650006	    -15.97895660	     -8.62522358	      6.50682195	      0.69493850	    -13.87151776	    -11.38817352	    -21.32669277	     20.19917137	     47.67456753	      0.00000000	      0.00000000	     21.61920439	    -14.76675268	     -8.21015848	     83.17796793	     47.58321694	      0.00000000	      0.00000000
     33.94371429	     -2.55850668	     -6.02534359	     -0.97261373	      1.06578381	      0.91860704	      0.48935341	     22.52645402	      3.10567400	    -13.88957047	     20.24793420	     20.24793420	      2.33069037	     -4.97725708	     -4.69425964	      1.56244902	    -12.71848428	     -8.40064902	     42.56976598	     42.56976598	      6.94561179	    -16.90195138	    -14.95910809	     -8.64074322	      6.64643807	      0.76389606	    -12.51681813	    -11.27485510	    -20.95955901	     20.84097986	     47.61212417	      0.00000000	      0.00000000	     20.74326660	    -14.39766805	     -7.98806454	     81.98499168	     47.56472516	      0.00000000	      0.00000000
     33.95492857	     -2.58155315	     -6.28544563	     -0.61684291	      1.06595898	      0.92019241	      0.49157489	     21.56919427	      3.52498810	    -14.27647159	     19.65553878	     19.65553878	      2.81985403	     -4.71743596	     -4.82848829	      3.96691651	    -13.59059386	     -7.21772227	     46.97153334	     46.97153334	      4.48307525	    -17.75763007	    -13.72907484	     -8.65178208	      6.81400234	      0.92806081	    -11.12692978	    -11.21241558	    -20.72413195	     21.50476928	     47.56739771	      0.00000000	      0.00000000	     19.82538864	    -13.97088846	     -7.72095756	     80.83141991	     47.52944222	      0.00000000	      0.00000000
     33.96614286	     -2.57138189	     -6.34000907	     -0.25024734	      1.06587277	      0.92169142	      0.49337455	     20.69304250	      3.65004512	    -14.72438373	     19.24870584	     19.24870584	      3.22279446	     -4.28094390	     -5.19304173	      6.61293124	    -13.89699231	     -5.55983114	     51.58532804	     51.58532804	      3.88495022	    -17.90805407	     -7.40253089	     -8.67676030	      6.79071891	      1.10967462	     -9.85850954	    -11.24738938	    -19.66761645	     22.75984471	     47.39897679	      0.00000000	      0.00000000	     19.44476013	    -13.40674872	     -7.50778579	     77.99509140	     47.49501340	      0.00000000	      0.00000000
     33.97735714	     -2.51394499	     -6.59037857	      0.10174473	      1.06574559	      0.92297656	      0.49535835	     19.75355182	      4.05564647	    -15.05964045	     18.78697494	     18.78697494	      3.65918439	     -4.09634784	     -5.27581545	      9.01713772	    -14.58644186	     -4.36210349	     55.43509181	     55.43509181	      1.63513364	    -18.34052067	     -6.30807643	     -8.83169463	      6.89783481	      1.36753400	     -8.31298594	    -11.26106783	    -19.44802989	     23.56586916	     47.35366677	      0.00000000	      0.00000000	     18.56415975	    -12.82225118	     -7.11334473	     77.11426930	     47.45169368	      0.00000000	      0.00000000
     33.98857143	     -2.59671551	     -6.51353838	      0.45489957	      1.06540980	      0.92406694	      0.49673159	     19.04074054	      4.01865046	    -15.45817590	     18.46058971	     18.46058971	      4.09271922	     -3.58915580	     -5.51042531	     11.87693765	    -14.42450181	     -2.68066019	     59.49968605	     59.49968605	      2.50710853	    -18.07448368	      2.43837698	     -8.70237783	      6.74255435	      1.70422459	     -7.47903120	    -11.47568586	    -17.62053441	     25.81760225	     47.06979937	      0.00000000	      0.00000000	     18.38782910	    -12.18600177	     -6.72062104	     73.32844465	     47.39096505	      0.00000000	      0.00000000
     33.99978571	     -2.51588791	     -6.66389298	      0.79842933	      1.06506673	      0.92509540	      0.49843876	     18.18263761	      4.30450674	    -15.70101743	     18.15361266	     18.15361266	      4.49543940	     -3.49246696	     -5.55042283	     14.18827852	    -14.79001022	     -1.56511650	     62.48883929	     62.48883929	      1.00387345	    -18.33676684	      3.07780265	     -8.88440354	      6.71739762	      1.83664707	     -5.75999340	    -11.60659052	    -17.36205278	     26.86049102	     47.01448787	      0.00000000	      0.00000000	     17.35599236	    -11.77651123	     -6.34210120	     72.19090023	     47.34007915	      0.00000000	      0.00000000
     34.01100000	     -2.52509250	     -6.61876655	      1.11571111	      1.06462652	      0.92602372	      0.49982351	     17.46684436	      4.33617499	    -15.97131077	     17.94623289	     17.94623289	      5.01637679	     -3.19778411	     -5.49893301	     16.70613336	    -14.70261435	     -0.40540709	     65.33460353	     65.33460353	      1.68838128	    -18.20113732	      8.41094602	     -8.86979704	      6.56110362	      2.30950899	     -5.11498198	    -12.12029156	    -14.50158480	     30.11598949	     46.62466126	      0.00000000	      0.00000000	     17.36456279	    -11.12417599	     -5.84415547	     67.87967756	     47.26093008	      0.00000000	      0.00000000
     34.02221429	     -2.43576877	     -6.56321377	      1.43902192	      1.06418093	      0.92697158	      0.50128714	     16.65460874	      4.39791323	    -16.06558391	     17.73697338	     17.73697338	      5.45579802	     -3.14495735	     -5.52148371	     18.83734917	    -14.73542233	      0.38418832	     67.31549467	     67.31549467	      1.15604944	    -18.38484954	      8.79955508	     -9.01381004	      6.31495116	      2.03186409	     -3.15219089	    -12.28089628	    -13.96606348	     31.64289096	     46.53175600	      0.00000000	      0.00000000	     16.27555809	    -11.02781408	     -5.57082053	     65.81497857	     47.20414680	      0.00000000	      0.00000000
     34.03342857	     -2.35591067	     -6.48563692	      1.73470880	      1.06364228	      0.92787658	      0.50264985	     15.88323120	      4.42754956	    -16.18339417	     17.58038477	     17.58038477	      5.94395930	     -3.04191122	     -5.39899072	     20.97018890	    -14.70266722	      1.03283232	     68.91459590	     68.91459590	      1.55277246	    -18.45164822	     10.61606470	     -9.13857820	      6.06738867	      2.57531808	     -2.11687623	    -12.86549033	    -11.88916477	     34.18596482	     46.27826060	      0.00000000	      0.00000000	     16.35502229	    -10.15832133	     -5.49048722	     61.51371745	     47.14584302	      0.00000000	      0.00000000
     34.04464286	     -2.26821501	     -6.40104308	      2.03398377	      1.06302003	      0.92874447	      0.50402392	     15.09393975	      4.47525492	    -16.24345426	     17.38761692	     17.38761692	      6.42590495	     -3.04638774	     -5.27379183	     22.97478071	    -14.71001408	      1.46132628	     69.91836533	     69.91836533	      1.94444321	    -18.56441172	     11.43182195	     -9.29614479	      5.77645458	      2.69545188	     -0.61277202	    -13.33533063	    -10.42060458	     36.62142239	     46.08664792	      0.00000000	      0.00000000	     15.82448503	     -9.76001264	     -5.25576308	     58.22567526	     47.08058374	      0.00000000	      0.00000000
     34.05585714	     -2.17677732	     -6.32803320	      2.35171926	      1.06229012	      0.92955655	      0.50533702	     14.29572421	      4.54199773	    -16.28376835	     17.16409131	     17.16409131	      6.87404209	     -3.09059642	     -5.16688191	     24.89378391	    -14.74980540	      1.72915833	     70.39298341	     70.39298341	      2.56878817	    -18.70022575	     12.06757785	     -9.48162086	      5.51813947	      2.70451938	      1.17666971	    -13.72097256	     -9.49827691	     38.70874224	     45.95444838	      0.00000000	      0.00000000	     15.27693368	     -9.39273320	     -5.18674390	     54.81985814	     47.02303487	      0.00000000	      0.00000000
     34.06707143	     -2.13436307	     -6.29504088	      2.66360861	      1.06144745	      0.93022238	      0.50664434	     13.51220348	      4.66981091	    -16.32506058	     16.84009189	     16.84009189	      7.25371687	     -3.12553375	     -5.13852172	     26.76328629	    -14.86938318	      1.83163491	     70.31864563	     70.31864563	      3.12056222	    -18.84153112	     12.10273735	     -9.62941785	      5.28272911	      2.41490313	      3.47890685	    -13.83767513	     -9.45867752	     40.22237911	     45.90714092	      0.00000000	      0.00000000	     13.98313905	     -9.35131065	     -4.99932576	     52.92696454	     46.96975217	      0.00000000	      0.00000000
     34.07828571	     -2.08669450	     -6.26410469	      3.04527421	      1.06039030	      0.93090267	      0.50782911	     12.69793948	      4.81736572	    -16.39488214	     16.43067456	     16.43067456	      7.62303058	     -3.23228536	     -5.03846249	     28.52893104	    -14.96551071	      1.82685305	     69.69169879	     69.69169879	      3.84731237	    -18.94863941	     12.50730269	     -9.80161331	      5.05783198	      1.90403605	      5.78967989	    -13.84652662	     -9.21948153	     42.09705218	     45.83502858	      0.00000000	      0.00000000	     12.98569069	     -9.36055645	     -4.91369514	     50.04423497	     46.91627015	      0.00000000	      0.00000000
     34.08950000	     -2.10179479	     -6.22694601	      3.39320858	      1.05912589	      0.93141790	      0.50884000	     12.00340475	      4.93433773	    -16.43759512	     16.10219030	     16.10219030	      8.03132575	     -3.33770914	     -4.80632676	     30.28260703	    -14.96674963	      1.75851631	     68.65718480	     68.65718480	      5.08565956	    -19.00762984	     14.46701825	     -9.88386834	      4.86828854	      2.67147725	      6.86505974	    -14.76083049	     -7.77392613	     45.16743180	     45.64932218	      0.00000000	      0.00000000	     13.83956882	     -8.26768160	     -5.30152039	     43.95091509	     46.88240585	      0.00000000	      0.00000000
     34.10071429	     -2.13250213	     -6.24266453	      3.75538053	      1.05776352	      0.93181086	      0.50978987	     11.26357648	      5.12525137	    -16.53151573	     15.62896897	     15.62896897	      8.37370119	     -3.35715908	     -4.66452125	     31.87006626	    -15.03180416	      1.56214547	     67.05685115	     67.05685115	      5.91560601	    -19.06983600	     15.39406506	    -10.02020803	      4.73603771	      2.63417891	      8.62189372	    -15.16628525	     -7.33556116	     48.07870809	     45.53285245	      0.00000000	      0.00000000	     13.24874870	     -7.92622137	     -5.52621786	     40.62652270	     46.84331483	      0.00000000	      0.00000000
